<?xml version="1.0" standalone="no"?>
<!DOCTYPE svg PUBLIC "-//W3C//DTD SVG 20010904//EN"
 "http://www.w3.org/TR/2001/REC-SVG-20010904/DTD/svg10.dtd">
<svg version="1.0" xmlns="http://www.w3.org/2000/svg"
 width="600.000000pt" height="600.000000pt" viewBox="0 0 600.000000 600.000000"
 preserveAspectRatio="xMidYMid meet">
<metadata>
Created by potrace 1.11, written by Peter Selinger 2001-2013
</metadata>
<g transform="translate(0.000000,600.000000) scale(0.100000,-0.100000)"
fill="#000000" stroke="none">
<path d="M2799 5986 c-2 -2 -40 -6 -84 -10 -44 -3 -89 -8 -100 -10 -11 -2 -42
-6 -70 -10 -224 -31 -531 -121 -760 -223 -792 -355 -1383 -1031 -1640 -1874
-14 -47 -28 -99 -31 -115 -2 -16 -9 -42 -14 -59 -15 -48 -47 -238 -55 -325 -2
-19 -7 -64 -10 -100 -14 -132 -8 -488 10 -578 2 -11 6 -45 9 -74 4 -29 8 -65
11 -80 53 -299 141 -569 272 -833 46 -93 182 -325 215 -366 10 -13 42 -56 71
-95 88 -118 117 -152 262 -299 258 -262 471 -418 790 -578 301 -152 662 -259
978 -291 31 -3 83 -9 115 -12 117 -13 456 -6 565 11 12 2 45 6 72 10 72 9 119
16 125 20 3 2 24 6 46 9 86 13 248 56 369 98 298 103 555 237 815 427 133 97
391 337 490 456 121 146 202 259 287 400 283 470 428 994 426 1540 0 127 -10
315 -18 345 -2 8 -7 40 -10 70 -3 30 -10 73 -15 95 -5 22 -12 56 -15 75 -3 19
-11 55 -16 80 -6 25 -12 52 -14 61 -2 9 -13 49 -25 90 -209 716 -680 1332
-1315 1719 -86 53 -282 155 -344 180 -219 87 -234 93 -341 125 -47 14 -114 32
-195 51 -38 9 -226 44 -268 49 -23 3 -58 8 -77 11 -42 6 -505 16 -511 10z"/>
</g>
</svg>
